<?xml version="1.0" encoding="utf-8"?>
<!-- Generator: Adobe Illustrator 16.0.0, SVG Export Plug-In . SVG Version: 6.00 Build 0)  -->
<!DOCTYPE svg PUBLIC "-//W3C//DTD SVG 1.1//EN" "http://www.w3.org/Graphics/SVG/1.1/DTD/svg11.dtd">
<svg version="1.1" id="Layer_1" xmlns="http://www.w3.org/2000/svg" xmlns:xlink="http://www.w3.org/1999/xlink" x="0px" y="0px"
	 width="36px" height="36px" viewBox="0 0 36 36" enable-background="new 0 0 36 36" xml:space="preserve">
<g id="linkedin" display="none">
	<rect display="inline" fill="#002A5B" width="36" height="36"/>
	<g display="inline">
		<path fill="#00B8F1" d="M33.332,0H2.657C1.191,0,0,1.163,0,2.594v30.809C0,34.836,1.191,36,2.657,36h30.675
			C34.801,36,36,34.836,36,33.402V2.594C36,1.163,34.801,0,33.332,0z"/>
		<path fill="#002A5B" d="M5.335,13.498h5.341v17.178H5.335V13.498z M8.006,4.956c1.707,0,3.094,1.388,3.094,3.095
			c0,1.71-1.387,3.098-3.094,3.098c-1.711,0-3.095-1.388-3.095-3.098C4.911,6.344,6.295,4.956,8.006,4.956"/>
		<path fill="#002A5B" d="M14.026,13.498h5.123v2.346h0.072c0.715-1.35,2.455-2.774,5.053-2.774c5.402,0,6.398,3.558,6.398,8.185
			v9.422H25.34v-8.352c0-1.994-0.037-4.558-2.775-4.558c-2.775,0-3.201,2.17-3.201,4.413v8.497h-5.335L14.026,13.498L14.026,13.498z
			"/>
	</g>
</g>
<g id="g_x2B_" display="none">
	<g display="inline">
		<rect fill="#002A5B" width="36" height="36"/>
		<g>
			<path fill="#00B8F1" d="M16.301,2.628c0.282,0.176,0.601,0.434,0.953,0.771c0.339,0.353,0.672,0.786,0.996,1.3
				c0.311,0.485,0.586,1.057,0.826,1.718c0.197,0.661,0.297,1.432,0.297,2.313c-0.027,1.616-0.382,2.908-1.066,3.877
				c-0.335,0.47-0.69,0.903-1.066,1.3c-0.415,0.396-0.856,0.8-1.327,1.212c-0.268,0.279-0.515,0.594-0.742,0.947
				c-0.269,0.367-0.403,0.793-0.403,1.278c0,0.47,0.138,0.859,0.413,1.167c0.233,0.294,0.46,0.552,0.681,0.771l1.526,1.255
				c0.948,0.779,1.78,1.639,2.495,2.576c0.673,0.955,1.023,2.203,1.052,3.746c0,2.188-0.963,4.127-2.888,5.814
				c-1.995,1.746-4.875,2.65-8.638,2.709c-3.15-0.027-5.503-0.701-7.056-2.021C0.785,32.131,0,30.658,0,28.941
				c0-0.836,0.255-1.768,0.765-2.793c0.495-1.025,1.391-1.926,2.688-2.703c1.457-0.834,2.987-1.395,4.59-1.67
				c1.588-0.236,2.907-0.367,3.956-0.396c-0.324-0.43-0.613-0.887-0.867-1.373c-0.295-0.474-0.443-1.042-0.443-1.706
				c0-0.398,0.056-0.731,0.168-0.997c0.099-0.281,0.19-0.539,0.275-0.775c-0.511,0.059-0.992,0.088-1.445,0.088
				c-2.395-0.029-4.219-0.786-5.475-2.269c-1.314-1.38-1.971-2.988-1.971-4.824c0-2.217,0.931-4.229,2.793-6.035
				c1.279-1.056,2.608-1.746,3.986-2.07C10.385,1.14,11.663,1,12.857,1h8.997l-2.776,1.628H16.301z M18.039,28.625
				c0-1.146-0.372-2.145-1.118-2.996c-0.788-0.809-2.019-1.799-3.694-2.975c-0.287-0.029-0.623-0.043-1.009-0.043
				c-0.229-0.031-0.817,0-1.762,0.086c-0.931,0.133-1.883,0.346-2.857,0.641c-0.229,0.088-0.552,0.219-0.967,0.396
				c-0.416,0.188-0.837,0.461-1.267,0.812c-0.416,0.367-0.766,0.822-1.053,1.367c-0.33,0.57-0.494,1.262-0.494,2.068
				c0,1.586,0.716,2.896,2.148,3.924c1.36,1.025,3.223,1.557,5.586,1.586c2.119-0.029,3.737-0.498,4.854-1.41
				C17.495,31.188,18.039,30.035,18.039,28.625z M11.768,15.387c1.184-0.044,2.169-0.471,2.959-1.281
				c0.381-0.574,0.626-1.162,0.734-1.765c0.065-0.603,0.098-1.111,0.098-1.523c0-1.781-0.454-3.576-1.361-5.386
				c-0.425-0.868-0.985-1.575-1.679-2.119c-0.709-0.515-1.524-0.788-2.446-0.817c-1.219,0.03-2.232,0.523-3.041,1.479
				C6.352,4.976,6.026,6.094,6.056,7.33c0,1.634,0.476,3.333,1.428,5.1c0.461,0.824,1.056,1.523,1.785,2.097
				C9.997,15.101,10.829,15.387,11.768,15.387z"/>
			<polygon fill="#00B8F1" points="36,15.077 31.154,15.077 31.154,10.231 28.387,10.231 28.387,15.077 23.654,15.077 
				23.654,17.846 28.387,17.846 28.387,22.576 31.154,22.576 31.154,17.846 36,17.846 			"/>
		</g>
	</g>
</g>
<g id="fb" display="none">
	<rect display="inline" fill="#002A5B" width="36" height="36"/>
	<g display="inline">
		<path fill="#00B8F1" d="M34.016,0H1.987C0.89,0,0,0.889,0,1.987v32.029c0,1.096,0.89,1.985,1.987,1.985h17.242V22.059h-4.689
			v-5.433h4.689v-4.007c0-4.649,2.84-7.181,6.989-7.181c1.987,0,3.694,0.147,4.191,0.213v4.859l-2.876,0.002
			c-2.258,0-2.693,1.072-2.693,2.645v3.469h5.381l-0.701,5.433h-4.68v13.942h9.176c1.096,0,1.985-0.89,1.985-1.985V1.987
			C36.001,0.889,35.111,0,34.016,0z"/>
		<path fill="#002A5B" d="M29.52,22.059l0.701-5.433H24.84v-3.469c0-1.573,0.436-2.645,2.693-2.645l2.876-0.002V5.651
			c-0.497-0.066-2.204-0.213-4.191-0.213c-4.149,0-6.989,2.532-6.989,7.181v4.007h-4.689v5.433h4.689v13.942h5.611V22.059H29.52z"/>
	</g>
</g>
<g id="twitter">
	<g>
		<rect fill="none" width="36" height="36"/>
		<path opacity="0.5" fill="#FFFFFF" enable-background="new    " d="M36.001,7.463c-1.325,0.587-2.748,0.984-4.243,1.163
			c1.524-0.915,2.696-2.362,3.248-4.087C33.578,5.387,31.999,6,30.314,6.333C28.969,4.897,27.049,4,24.924,4
			c-4.078,0-7.386,3.307-7.386,7.385c0,0.579,0.066,1.143,0.192,1.683C11.592,12.761,6.149,9.82,2.507,5.352
			c-0.636,1.09-1,2.359-1,3.713c0,2.562,1.303,4.823,3.285,6.147c-1.21-0.039-2.35-0.371-3.345-0.924
			c-0.001,0.031-0.001,0.062-0.001,0.093c0,3.578,2.545,6.564,5.924,7.242c-0.62,0.168-1.271,0.26-1.945,0.26
			c-0.476,0-0.939-0.047-1.389-0.133c0.939,2.936,3.666,5.07,6.898,5.129c-2.527,1.98-5.712,3.162-9.172,3.162
			c-0.596,0-1.184-0.035-1.763-0.104c3.269,2.096,7.151,3.316,11.322,3.316c13.585,0,21.014-11.254,21.014-21.014
			c0-0.32-0.008-0.639-0.021-0.955C33.757,10.245,35.01,8.944,36.001,7.463z"/>
	</g>
</g>
<g id="youtube_copy" display="none">
	<rect display="inline" fill="#002A5B" width="36" height="36"/>
	<path display="inline" fill="#00B8F1" d="M31.721,12.249c0,0-0.271-1.929-1.113-2.779c-1.062-1.115-2.258-1.12-2.805-1.185
		C23.885,8,18.006,8,18.006,8h-0.012c0,0-5.877,0-9.795,0.284c-0.548,0.065-1.741,0.07-2.807,1.185
		c-0.839,0.851-1.112,2.78-1.112,2.78S4,14.515,4,16.781v2.125c0,2.265,0.28,4.529,0.28,4.529s0.273,1.931,1.112,2.778
		c1.066,1.115,2.465,1.082,3.088,1.197c2.24,0.217,9.52,0.28,9.52,0.28s5.885-0.008,9.803-0.291c0.547-0.065,1.74-0.071,2.805-1.188
		c0.842-0.85,1.113-2.777,1.113-2.777S32,21.17,32,18.904V16.78C32,14.515,31.721,12.249,31.721,12.249z M15.11,21.48l-0.001-7.871
		l7.565,3.947L15.11,21.48z"/>
</g>
<g id="youtube_copy_2" display="none">
	<g display="inline">
		<polygon fill="#002A5B" points="15.11,21.48 22.674,17.559 15.108,13.612 		"/>
		<path fill="#002A5B" d="M0,0v36h36V0H0z M32,18.904c0,2.266-0.279,4.531-0.279,4.531s-0.271,1.93-1.113,2.777
			c-1.062,1.115-2.258,1.121-2.805,1.188C23.885,27.686,18,27.693,18,27.693s-7.28-0.064-9.52-0.281
			c-0.623-0.115-2.022-0.082-3.088-1.197c-0.839-0.85-1.112-2.779-1.112-2.779S4,21.17,4,18.904V16.78
			c0-2.266,0.28-4.532,0.28-4.532s0.273-1.929,1.112-2.779c1.066-1.115,2.259-1.12,2.807-1.185C12.117,8,17.994,8,17.994,8h0.012
			c0,0,5.879,0,9.797,0.284c0.547,0.065,1.74,0.07,2.805,1.185c0.842,0.851,1.113,2.779,1.113,2.779S32,14.515,32,16.781V18.904z"/>
	</g>
</g>
</svg>
